<?xml version="1.0" encoding="utf-8"?>
<svg version="1.1" xmlns:xlink="http://www.w3.org/1999/xlink" width="23px" height="22px" xmlns="http://www.w3.org/2000/svg">
  <g transform="matrix(1 0 0 1 -1315 -35 )">
    <path d="M 19.166666666666668 6.285714285714286  C 19.166666666666668 7.488839285714286  18.772352430555557 8.601934523809522  17.983723958333332 9.625  C 18.452907986111114 9.739583333333332  18.89963107638889 9.895089285714285  19.323893229166668 10.091517857142856  C 19.748155381944446 10.287946428571429  20.1923828125 10.586681547619046  20.656575520833332 10.987723214285715  C 21.120768229166668 11.38876488095238  21.517578125 11.86142113095238  21.847005208333332 12.405691964285715  C 22.176432291666668 12.949962797619046  22.450954861111114 13.653831845238093  22.670572916666668 14.517299107142858  C 22.890190972222218 15.38076636904762  23 16.34858630952381  23 17.42075892857143  C 23 18.6811755952381  22.500868055555554 19.759486607142858  21.502604166666668 20.655691964285715  C 20.504340277777782 21.55189732142857  19.301432291666668 22  17.893880208333332 22  L 5.106119791666667 22  C 3.698567708333333 22  2.4956597222222228 21.55189732142857  1.4973958333333335 20.655691964285715  C 0.49913194444444436 19.759486607142858  0 18.6811755952381  0 17.42075892857143  C 0 16.34858630952381  0.10980902777777776 15.38076636904762  0.3294270833333333 14.517299107142858  C 0.549045138888889 13.653831845238093  0.8235677083333333 12.949962797619046  1.1529947916666667 12.405691964285715  C 1.482421875 11.86142113095238  1.8792317708333335 11.38876488095238  2.3434244791666665 10.987723214285715  C 2.8076171875 10.586681547619046  3.2518446180555562 10.287946428571429  3.676106770833333 10.091517857142856  C 4.100368923611112 9.895089285714285  4.547092013888889 9.739583333333332  5.016276041666667 9.625  C 4.2276475694444455 8.601934523809522  3.833333333333333 7.488839285714286  3.833333333333333 6.285714285714286  C 3.833333333333333 5.4345238095238075  4.035481770833333 4.622209821428571  4.439778645833333 3.8487723214285707  C 4.844075520833333 3.0753348214285707  5.390625 2.40625  6.079427083333334 1.841517857142856  C 6.768229166666666 1.2767857142857146  7.584309895833334 0.8286830357142854  8.527669270833334 0.49720982142857073  C 9.471028645833334 0.1657366071428561  10.461805555555557 0  11.5 0  C 12.538194444444446 0  13.528971354166668 0.1657366071428561  14.472330729166668 0.49720982142857073  C 15.415690104166668 0.8286830357142854  16.231770833333332 1.2767857142857146  16.920572916666668 1.841517857142856  C 17.609375 2.40625  18.155924479166668 3.0753348214285707  18.560221354166668 3.8487723214285707  C 18.964518229166668 4.622209821428571  19.166666666666668 5.4345238095238075  19.166666666666668 6.285714285714286  Z M 15.5654296875 2.9525669642857144  C 14.442382812500002 2.0318080357142856  13.087239583333336 1.5714285714285707  11.5 1.5714285714285707  C 9.912760416666666 1.5714285714285707  8.5576171875 2.0318080357142856  7.4345703125 2.9525669642857144  C 6.3115234375 3.873325892857144  5.75 4.984375  5.75 6.285714285714286  C 5.75 7.587053571428571  6.3115234375 8.698102678571429  7.4345703125 9.618861607142856  C 8.5576171875 10.539620535714285  9.912760416666666 11  11.5 11  C 13.087239583333336 11  14.442382812500002 10.539620535714285  15.5654296875 9.618861607142856  C 16.6884765625 8.698102678571429  17.25 7.587053571428571  17.25 6.285714285714286  C 17.25 4.984375  16.6884765625 3.873325892857144  15.5654296875 2.9525669642857144  Z M 5.106119791666667 20  L 17.893880208333332 20  C 18.772352430555557 20.42857142857143  19.523546006944446 20.135974702380953  20.1474609375 19.55078125  C 20.771375868055557 18.965587797619047  21.083333333333332 18.255580357142858  21.083333333333332 17.42075892857143  C 21.083333333333332 15.464657738095237  20.691514756944446 13.921875  19.907877604166668 12.792410714285715  C 19.12424045138889 11.662946428571429  17.998697916666668 11.06956845238095  16.53125 11.012276785714285  C 15.08376736111111 12.05171130952381  13.406684027777779 12.571428571428571  11.5 12.571428571428571  C 9.593315972222223 12.571428571428571  7.91623263888889 12.05171130952381  6.46875 11.012276785714285  C 5.001302083333333 11.06956845238095  3.8757595486111116 11.662946428571429  3.092122395833333 12.792410714285715  C 2.308485243055556 13.921875  1.9166666666666665 15.464657738095237  1.9166666666666665 17.42075892857143  C 1.9166666666666665 18.255580357142858  2.2286241319444446 18.965587797619047  2.8525390625 19.55078125  C 3.4764539930555562 20.135974702380953  4.2276475694444455 20.42857142857143  5.106119791666667 20  Z " fill-rule="nonzero" fill="#8c8c8c" stroke="none" transform="matrix(1 0 0 1 1315 35 )" />
  </g>
</svg>